<?xml version="1.0" standalone="no"?>
<!DOCTYPE svg PUBLIC "-//W3C//DTD SVG 20010904//EN"
 "http://www.w3.org/TR/2001/REC-SVG-20010904/DTD/svg10.dtd">
<svg version="1.0" xmlns="http://www.w3.org/2000/svg"
 width="24.000000pt" height="24.000000pt" viewBox="0 0 24.000000 24.000000"
 preserveAspectRatio="xMidYMid meet">
<metadata>
Created by potrace 1.16, written by Peter Selinger 2001-2019
</metadata>
<g transform="translate(0.000000,24.000000) scale(0.009302,-0.009266)"
fill="#000000" stroke="none">
<path d="M1142 2015 c-82 -19 -210 -88 -276 -147 -52 -47 -58 -57 -54 -82 4
-21 -4 -47 -33 -100 -40 -74 -69 -168 -69 -222 0 -24 -5 -34 -20 -39 -11 -3
-28 -17 -39 -31 -10 -13 -24 -24 -29 -24 -6 0 -18 -10 -26 -22 -13 -18 -16
-53 -16 -173 0 -140 2 -153 21 -171 11 -10 33 -32 48 -47 23 -23 35 -28 67
-25 29 2 43 -2 55 -17 15 -17 19 -18 39 -4 22 15 23 17 23 262 0 258 -3 277
-45 277 -10 0 -21 -7 -24 -15 -4 -8 -13 -15 -21 -15 -36 0 8 184 66 277 19 32
30 41 46 37 14 -3 36 10 74 45 209 192 513 192 721 1 39 -36 61 -49 75 -46 39
10 109 -140 122 -256 5 -48 3 -58 -10 -58 -8 0 -17 7 -21 15 -3 8 -14 15 -24
15 -41 0 -44 -19 -44 -270 1 -132 1 -244 1 -250 2 -29 71 -33 71 -4 0 8 6 11
16 7 21 -8 13 -76 -16 -133 -52 -102 -149 -158 -289 -167 -86 -6 -91 -5 -121
21 -29 24 -39 26 -124 26 -103 0 -128 -11 -128 -53 0 -50 15 -57 127 -57 87 0
104 3 119 19 14 15 36 19 119 23 124 5 193 33 261 103 45 46 86 132 86 181 0
14 7 27 18 31 9 3 29 18 44 32 15 14 37 34 48 44 18 16 20 29 20 170 0 122 -3
157 -16 175 -8 12 -20 22 -26 22 -5 0 -19 11 -29 24 -11 14 -28 28 -39 31 -15
5 -20 15 -20 39 0 54 -29 148 -69 222 -29 53 -37 79 -33 100 4 25 -2 35 -54
81 -72 65 -189 127 -275 148 -77 18 -224 18 -297 0z m287 -20 c87 -21 174 -64
245 -122 77 -63 85 -76 62 -102 -18 -20 -19 -19 -84 36 -77 65 -162 108 -258
128 -87 18 -121 18 -208 0 -96 -20 -181 -62 -258 -128 -50 -42 -68 -53 -81
-45 -41 22 3 80 117 153 137 87 308 117 465 80z m-624 -575 c4 -6 7 -117 7
-248 0 -198 -3 -237 -15 -240 -18 -4 -27 76 -27 242 0 198 12 283 35 246z
m998 -57 c9 -88 9 -293 1 -372 -5 -46 -11 -61 -21 -59 -12 3 -15 42 -15 240 0
131 3 242 7 248 14 23 22 6 28 -57z m-1050 -186 l2 -217 -34 -6 c-57 -11 -61
3 -61 226 0 216 2 223 58 218 l34 -3 1 -218z m1155 211 c9 -9 12 -69 12 -208
0 -223 -4 -237 -61 -226 l-34 6 2 217 c1 120 2 219 3 221 1 8 68 0 78 -10z"/>
<path d="M1030 1388 c-74 -39 -84 -61 -88 -198 -4 -137 8 -175 67 -216 28 -19
49 -24 94 -24 70 0 115 -17 149 -59 33 -39 43 -39 76 0 34 42 79 59 149 59 45
0 66 5 94 24 59 41 71 79 67 216 -4 137 -14 159 -88 198 -42 21 -56 22 -260
22 -204 0 -218 -1 -260 -22z m527 -24 c49 -36 63 -78 63 -187 0 -156 -37 -207
-152 -207 -70 0 -104 -12 -145 -53 l-33 -31 -32 31 c-42 41 -76 53 -146 53
-115 0 -152 51 -152 210 0 105 9 138 48 173 35 32 72 36 299 34 207 -2 223 -3
250 -23z"/>
</g>
</svg>
